<svg width="80" height="80" viewBox="0 0 80 80" fill="none" xmlns="http://www.w3.org/2000/svg">
<g filter="url(#filter0_d_9337_1420)">
<path d="M20 36C20 24.9543 28.9543 16 40 16V16C51.0457 16 60 24.9543 60 36V36C60 47.0457 51.0457 56 40 56V56C28.9543 56 20 47.0457 20 36V36Z" fill="white"/>
<path d="M38.1926 26.2857C38.8794 26.2857 39.2709 26.9699 39.2709 27.6571V31.8684H38.4014C38.2324 31.4502 37.9232 31.1039 37.5269 30.8888C37.1306 30.6736 36.6718 30.6031 36.2292 30.6893C35.7867 30.7755 35.3878 31.0129 35.1011 31.3611C34.8143 31.7092 34.6575 32.1462 34.6575 32.5973C34.6575 33.0484 34.8143 33.4855 35.1011 33.8336C35.3878 34.1817 35.7867 34.4192 36.2292 34.5054C36.6718 34.5915 37.1306 34.521 37.5269 34.3059C37.9232 34.0908 38.2324 33.7444 38.4014 33.3263H39.2709V43.9182C39.2709 44.4974 39.0261 45.0738 38.5102 45.3372C38.0425 45.5823 37.5228 45.7116 36.9948 45.7143C35.528 45.7143 34.437 44.9717 33.7347 44.0931C33.2483 43.4868 32.9091 42.7758 32.7438 42.0161C32.2902 41.8822 31.8701 41.6537 31.5111 41.3455C30.8214 40.7517 30.2852 39.7992 30.2852 38.3958C30.2852 37.662 30.3376 37.0224 30.4697 36.485H34.5594C35.2181 36.485 35.764 36.9709 35.8563 37.6037C35.44 37.776 35.0964 38.0877 34.8845 38.4855C34.6726 38.8833 34.6054 39.3425 34.6945 39.7843C34.7837 40.2262 35.0235 40.6234 35.3731 40.9078C35.7226 41.1923 36.1601 41.3463 36.6106 41.3436C37.0612 41.3409 37.4968 41.1817 37.8429 40.8931C38.189 40.6045 38.4241 40.2045 38.5079 39.7616C38.5918 39.3186 38.5192 38.8603 38.3025 38.4651C38.0858 38.0699 37.7386 37.7622 37.3202 37.5949C37.2692 36.8972 36.9562 36.2446 36.4441 35.7683C35.932 35.292 35.2587 35.0272 34.5594 35.0271H31.2954C31.4409 34.9068 31.6028 34.808 31.7763 34.7336C31.6762 34.3765 31.6181 34.0089 31.6034 33.6382C31.5713 32.9239 31.6782 32.1804 31.89 31.5185C32.0998 30.8673 32.432 30.2327 32.8983 29.7943C33.1908 29.5092 33.5614 29.3174 33.963 29.2432C34.1563 28.4268 34.6488 27.7523 35.2773 27.2635C36.0846 26.6337 37.1425 26.2857 38.1916 26.2857H38.1926ZM40.728 40.8586H42.3309C43.0651 40.8586 43.7693 40.5668 44.2885 40.0473C44.8078 39.5278 45.0994 38.8233 45.0994 38.0886V36.344C45.5174 36.1749 45.8636 35.8655 46.0786 35.469C46.2936 35.0725 46.3641 34.6136 46.278 34.1708C46.1918 33.728 45.9545 33.3289 45.6065 33.042C45.2586 32.7551 44.8217 32.5982 44.3709 32.5982C43.92 32.5982 43.4832 32.7551 43.1352 33.042C42.7873 33.3289 42.5499 33.728 42.4638 34.1708C42.3777 34.6136 42.4481 35.0725 42.6632 35.469C42.8782 35.8655 43.2243 36.1749 43.6423 36.344V38.0886C43.6423 38.4366 43.5041 38.7704 43.2582 39.0164C43.0123 39.2625 42.6787 39.4007 42.3309 39.4007H40.728V32.6041V32.5973V27.6571C40.728 26.9699 41.1195 26.2857 41.8063 26.2857C42.8574 26.2857 43.9143 26.6337 44.7216 27.2635C45.3501 27.7523 45.8426 28.4278 46.0359 29.2432C46.4439 29.3113 46.8072 29.5193 47.1006 29.7943C47.5669 30.2327 47.8991 30.8663 48.1089 31.5185C48.3207 32.1804 48.4276 32.9239 48.3955 33.6382C48.379 34.0037 48.3256 34.3769 48.2226 34.7336L48.2867 34.7627C48.6461 34.9319 48.9376 35.1972 49.1552 35.55C49.568 36.2158 49.7137 37.1741 49.7137 38.3958C49.7137 39.8002 49.1775 40.7536 48.4878 41.3455C48.1285 41.6538 47.7081 41.8823 47.2541 42.0161C47.0891 42.7757 46.7502 43.4867 46.2642 44.0931C45.5618 44.9717 44.4709 45.7143 43.0031 45.7143C42.4752 45.7119 41.9555 45.5829 41.4877 45.3381C40.9728 45.0738 40.728 44.4974 40.728 43.9182V40.8586V40.8586ZM36.1137 32.5973C36.1137 32.4684 36.1649 32.3448 36.256 32.2537C36.3471 32.1626 36.4706 32.1114 36.5994 32.1114C36.7283 32.1114 36.8518 32.1626 36.9429 32.2537C37.034 32.3448 37.0852 32.4684 37.0852 32.5973C37.0852 32.7262 37.034 32.8498 36.9429 32.9409C36.8518 33.0321 36.7283 33.0833 36.5994 33.0833C36.4706 33.0833 36.3471 33.0321 36.256 32.9409C36.1649 32.8498 36.1137 32.7262 36.1137 32.5973ZM36.5994 38.9148C36.4706 38.9148 36.3471 38.966 36.256 39.0571C36.1649 39.1482 36.1137 39.2718 36.1137 39.4007C36.1137 39.5296 36.1649 39.6532 36.256 39.7443C36.3471 39.8355 36.4706 39.8867 36.5994 39.8867C36.7283 39.8867 36.8518 39.8355 36.9429 39.7443C37.034 39.6532 37.0852 39.5296 37.0852 39.4007C37.0852 39.2718 37.034 39.1482 36.9429 39.0571C36.8518 38.966 36.7283 38.9148 36.5994 38.9148ZM43.8852 34.5411C43.8852 34.67 43.9363 34.7936 44.0274 34.8848C44.1185 34.9759 44.2421 35.0271 44.3709 35.0271C44.4997 35.0271 44.6232 34.9759 44.7143 34.8848C44.8054 34.7936 44.8566 34.67 44.8566 34.5411C44.8566 34.4123 44.8054 34.2887 44.7143 34.1975C44.6232 34.1064 44.4997 34.0552 44.3709 34.0552C44.2421 34.0552 44.1185 34.1064 44.0274 34.1975C43.9363 34.2887 43.8852 34.4123 43.8852 34.5411V34.5411Z" fill="#009FAC"/>
</g>
<defs>
<filter id="filter0_d_9337_1420" x="0" y="0" width="80" height="80" filterUnits="userSpaceOnUse" color-interpolation-filters="sRGB">
<feFlood flood-opacity="0" result="BackgroundImageFix"/>
<feColorMatrix in="SourceAlpha" type="matrix" values="0 0 0 0 0 0 0 0 0 0 0 0 0 0 0 0 0 0 127 0" result="hardAlpha"/>
<feOffset dy="4"/>
<feGaussianBlur stdDeviation="10"/>
<feColorMatrix type="matrix" values="0 0 0 0 0.00256944 0 0 0 0 0.213117 0 0 0 0 0.616667 0 0 0 0.15 0"/>
<feBlend mode="normal" in2="BackgroundImageFix" result="effect1_dropShadow_9337_1420"/>
<feBlend mode="normal" in="SourceGraphic" in2="effect1_dropShadow_9337_1420" result="shape"/>
</filter>
</defs>
</svg>
