<svg width="80" height="80" viewBox="0 0 80 80" fill="none" xmlns="http://www.w3.org/2000/svg">
<g filter="url(#filter0_d_9337_1259)">
<path d="M20 36C20 24.9543 28.9543 16 40 16V16C51.0457 16 60 24.9543 60 36V36C60 47.0457 51.0457 56 40 56V56C28.9543 56 20 47.0457 20 36V36Z" fill="white"/>
<path d="M40.9709 42.8V44.7429C40.9709 45.0005 40.8685 45.2476 40.6863 45.4298C40.5042 45.6119 40.2571 45.7143 39.9994 45.7143C39.7418 45.7143 39.4947 45.6119 39.3125 45.4298C39.1304 45.2476 39.028 45.0005 39.028 44.7429V42.8H37.0852V44.7429C37.0852 45.0005 36.9828 45.2476 36.8006 45.4298C36.6185 45.6119 36.3714 45.7143 36.1137 45.7143C35.8561 45.7143 35.609 45.6119 35.4268 45.4298C35.2446 45.2476 35.1423 45.0005 35.1423 44.7429V42.8C35.1423 42.7446 35.1472 42.6912 35.1559 42.6387C34.7409 42.4938 34.364 42.2571 34.0531 41.9463C33.7423 41.6355 33.5056 41.2585 33.3607 40.8435C33.3075 40.853 33.2535 40.8575 33.1994 40.8571H31.2566C30.9989 40.8571 30.7519 40.7548 30.5697 40.5726C30.3875 40.3904 30.2852 40.1433 30.2852 39.8857C30.2852 39.6281 30.3875 39.381 30.5697 39.1988C30.7519 39.0166 30.9989 38.9143 31.2566 38.9143H33.1994V36.9714H31.2566C30.9989 36.9714 30.7519 36.8691 30.5697 36.6869C30.3875 36.5047 30.2852 36.2576 30.2852 36C30.2852 35.7424 30.3875 35.4953 30.5697 35.3131C30.7519 35.1309 30.9989 35.0286 31.2566 35.0286H33.1994V33.0857H31.2566C30.9989 33.0857 30.7519 32.9834 30.5697 32.8012C30.3875 32.619 30.2852 32.3719 30.2852 32.1143C30.2852 31.8566 30.3875 31.6096 30.5697 31.4274C30.7519 31.2452 30.9989 31.1428 31.2566 31.1428H33.1994C33.2548 31.1428 33.3082 31.1477 33.3607 31.1564C33.6521 30.3171 34.3166 29.6527 35.1559 29.3612C35.1469 29.308 35.1424 29.254 35.1423 29.2V27.2571C35.1423 26.9995 35.2446 26.7524 35.4268 26.5702C35.609 26.3881 35.8561 26.2857 36.1137 26.2857C36.3714 26.2857 36.6185 26.3881 36.8006 26.5702C36.9828 26.7524 37.0852 26.9995 37.0852 27.2571V29.2H39.028V27.2571C39.028 26.9995 39.1304 26.7524 39.3125 26.5702C39.4947 26.3881 39.7418 26.2857 39.9994 26.2857C40.2571 26.2857 40.5042 26.3881 40.6863 26.5702C40.8685 26.7524 40.9709 26.9995 40.9709 27.2571V29.2H42.9137V27.2571C42.9137 26.9995 43.0161 26.7524 43.1983 26.5702C43.3804 26.3881 43.6275 26.2857 43.8852 26.2857C44.1428 26.2857 44.3899 26.3881 44.5721 26.5702C44.7542 26.7524 44.8566 26.9995 44.8566 27.2571V29.2C44.8566 29.2544 44.8517 29.3088 44.843 29.3612C45.6823 29.6527 46.3468 30.3171 46.6382 31.1564C46.6914 31.147 46.7454 31.1425 46.7994 31.1428H48.7423C48.9999 31.1428 49.247 31.2452 49.4292 31.4274C49.6114 31.6096 49.7137 31.8566 49.7137 32.1143C49.7137 32.3719 49.6114 32.619 49.4292 32.8012C49.247 32.9834 48.9999 33.0857 48.7423 33.0857H46.7994V35.0286H48.7423C48.9999 35.0286 49.247 35.1309 49.4292 35.3131C49.6114 35.4953 49.7137 35.7424 49.7137 36C49.7137 36.2576 49.6114 36.5047 49.4292 36.6869C49.247 36.8691 48.9999 36.9714 48.7423 36.9714H46.7994V38.9143H48.7423C48.9999 38.9143 49.247 39.0166 49.4292 39.1988C49.6114 39.381 49.7137 39.6281 49.7137 39.8857C49.7137 40.1433 49.6114 40.3904 49.4292 40.5726C49.247 40.7548 48.9999 40.8571 48.7423 40.8571H46.7994C46.7441 40.8571 46.6906 40.8523 46.6382 40.8435C46.4933 41.2585 46.2566 41.6355 45.9457 41.9463C45.6349 42.2571 45.258 42.4938 44.843 42.6387C44.8527 42.6912 44.8566 42.7456 44.8566 42.8V44.7429C44.8566 45.0005 44.7542 45.2476 44.5721 45.4298C44.3899 45.6119 44.1428 45.7143 43.8852 45.7143C43.6275 45.7143 43.3804 45.6119 43.1983 45.4298C43.0161 45.2476 42.9137 45.0005 42.9137 44.7429V42.8H40.9709ZM38.0566 33.0857C37.7989 33.0857 37.5519 33.1881 37.3697 33.3702C37.1875 33.5524 37.0852 33.7995 37.0852 34.0571V37.9428C37.0852 38.2005 37.1875 38.4476 37.3697 38.6298C37.5519 38.8119 37.7989 38.9143 38.0566 38.9143H41.9423C42.1999 38.9143 42.447 38.8119 42.6292 38.6298C42.8114 38.4476 42.9137 38.2005 42.9137 37.9428V34.0571C42.9137 33.7995 42.8114 33.5524 42.6292 33.3702C42.447 33.1881 42.1999 33.0857 41.9423 33.0857H38.0566Z" fill="#009FAC"/>
</g>
<defs>
<filter id="filter0_d_9337_1259" x="0" y="0" width="80" height="80" filterUnits="userSpaceOnUse" color-interpolation-filters="sRGB">
<feFlood flood-opacity="0" result="BackgroundImageFix"/>
<feColorMatrix in="SourceAlpha" type="matrix" values="0 0 0 0 0 0 0 0 0 0 0 0 0 0 0 0 0 0 127 0" result="hardAlpha"/>
<feOffset dy="4"/>
<feGaussianBlur stdDeviation="10"/>
<feColorMatrix type="matrix" values="0 0 0 0 0.00256944 0 0 0 0 0.213117 0 0 0 0 0.616667 0 0 0 0.15 0"/>
<feBlend mode="normal" in2="BackgroundImageFix" result="effect1_dropShadow_9337_1259"/>
<feBlend mode="normal" in="SourceGraphic" in2="effect1_dropShadow_9337_1259" result="shape"/>
</filter>
</defs>
</svg>
