<svg width="64" height="63" viewBox="0 0 64 63" fill="none" xmlns="http://www.w3.org/2000/svg">
<g filter="url(#filter0_d_9337_1199)">
<path d="M12 29C12 17.9543 20.9543 9 32 9C43.0457 9 52 17.9543 52 29C52 40.0457 43.0457 49 32 49C20.9543 49 12 40.0457 12 29Z" fill="white"/>
<path d="M36.574 28.4705L38.2684 26.7758L34.2213 22.7279L32.5269 24.4226L28.059 19.9646C27.2172 19.1226 25.8466 19.1226 25.0048 19.9646L22.9543 22.0155C22.1125 22.8574 22.1125 24.2283 22.9543 25.0703L27.4114 29.5283L22.2852 34.6664V38.7143H26.3322L31.4693 33.5762L35.9265 38.0342C36.9517 39.0597 38.3331 38.6819 38.9807 38.0342L41.0312 35.9833C41.873 35.1414 41.873 33.7705 41.0312 32.9285L36.574 28.4705ZM28.9547 27.9955L24.4868 23.5375L26.5265 21.4865L27.8971 22.8574L26.6236 24.142L28.1453 25.6639L29.4296 24.3794L30.9945 25.9446L28.9547 27.9955ZM37.459 36.5122L33.0018 32.0542L35.0523 30.0033L36.6172 31.5684L35.3329 32.853L36.8546 34.375L38.1389 33.0904L39.5095 34.4613L37.459 36.5122ZM41.3981 23.6454C41.4982 23.5456 41.5775 23.4269 41.6317 23.2964C41.6859 23.1658 41.7137 23.0258 41.7137 22.8844C41.7137 22.743 41.6859 22.6031 41.6317 22.4725C41.5775 22.3419 41.4982 22.2233 41.3981 22.1234L38.8727 19.5975C38.3655 19.0902 37.664 19.2845 37.351 19.5975L35.3761 21.5729L39.4231 25.6208L41.3981 23.6454Z" fill="#009FAC"/>
</g>
<defs>
<filter id="filter0_d_9337_1199" x="0.784313" y="0.0274506" width="62.4314" height="62.4314" filterUnits="userSpaceOnUse" color-interpolation-filters="sRGB">
<feFlood flood-opacity="0" result="BackgroundImageFix"/>
<feColorMatrix in="SourceAlpha" type="matrix" values="0 0 0 0 0 0 0 0 0 0 0 0 0 0 0 0 0 0 127 0" result="hardAlpha"/>
<feOffset dy="2.24314"/>
<feGaussianBlur stdDeviation="5.60784"/>
<feColorMatrix type="matrix" values="0 0 0 0 0.00256944 0 0 0 0 0.213117 0 0 0 0 0.616667 0 0 0 0.15 0"/>
<feBlend mode="normal" in2="BackgroundImageFix" result="effect1_dropShadow_9337_1199"/>
<feBlend mode="normal" in="SourceGraphic" in2="effect1_dropShadow_9337_1199" result="shape"/>
</filter>
</defs>
</svg>
