<svg width="80" height="80" viewBox="0 0 80 80" fill="none" xmlns="http://www.w3.org/2000/svg">
<g filter="url(#filter0_d_9337_1329)">
<path d="M20 36C20 24.9543 28.9543 16 40 16V16C51.0457 16 60 24.9543 60 36V36C60 47.0457 51.0457 56 40 56V56C28.9543 56 20 47.0457 20 36V36Z" fill="white"/>
<path d="M39.9997 24.5714C40.5233 24.5714 41.0254 24.7881 41.3956 25.1739C41.7658 25.5597 41.9737 26.083 41.9737 26.6286C41.9737 27.3897 41.5789 28.0583 40.9867 28.408V29.7143H41.9737C43.8062 29.7143 45.5635 30.4728 46.8592 31.8231C48.1549 33.1734 48.8828 35.0047 48.8828 36.9143H49.8699C50.1316 36.9143 50.3827 37.0226 50.5678 37.2155C50.7529 37.4084 50.8569 37.67 50.8569 37.9428V41.0286C50.8569 41.3013 50.7529 41.563 50.5678 41.7559C50.3827 41.9488 50.1316 42.0571 49.8699 42.0571H48.8828V43.0857C48.8828 43.6313 48.6749 44.1545 48.3047 44.5403C47.9345 44.9261 47.4324 45.1428 46.9088 45.1428H33.0906C32.5671 45.1428 32.065 44.9261 31.6948 44.5403C31.3246 44.1545 31.1166 43.6313 31.1166 43.0857V42.0571H30.1296C29.8678 42.0571 29.6168 41.9488 29.4317 41.7559C29.2466 41.563 29.1426 41.3013 29.1426 41.0286V37.9428C29.1426 37.67 29.2466 37.4084 29.4317 37.2155C29.6168 37.0226 29.8678 36.9143 30.1296 36.9143H31.1166C31.1166 35.0047 31.8445 33.1734 33.1402 31.8231C34.4359 30.4728 36.1933 29.7143 38.0257 29.7143H39.0127V28.408C38.4205 28.0583 38.0257 27.3897 38.0257 26.6286C38.0257 26.083 38.2337 25.5597 38.6039 25.1739C38.9741 24.7881 39.4762 24.5714 39.9997 24.5714ZM35.5582 35.8857C34.9037 35.8857 34.2761 36.1566 33.8134 36.6389C33.3506 37.1211 33.0906 37.7751 33.0906 38.4571C33.0906 39.1391 33.3506 39.7932 33.8134 40.2754C34.2761 40.7576 34.9037 41.0286 35.5582 41.0286C36.2126 41.0286 36.8402 40.7576 37.303 40.2754C37.7657 39.7932 38.0257 39.1391 38.0257 38.4571C38.0257 37.7751 37.7657 37.1211 37.303 36.6389C36.8402 36.1566 36.2126 35.8857 35.5582 35.8857ZM44.4413 35.8857C43.7868 35.8857 43.1592 36.1566 42.6965 36.6389C42.2337 37.1211 41.9737 37.7751 41.9737 38.4571C41.9737 39.1391 42.2337 39.7932 42.6965 40.2754C43.1592 40.7576 43.7868 41.0286 44.4413 41.0286C45.0957 41.0286 45.7233 40.7576 46.1861 40.2754C46.6488 39.7932 46.9088 39.1391 46.9088 38.4571C46.9088 37.7751 46.6488 37.1211 46.1861 36.6389C45.7233 36.1566 45.0957 35.8857 44.4413 35.8857Z" fill="#009FAC"/>
</g>
<defs>
<filter id="filter0_d_9337_1329" x="0" y="0" width="80" height="80" filterUnits="userSpaceOnUse" color-interpolation-filters="sRGB">
<feFlood flood-opacity="0" result="BackgroundImageFix"/>
<feColorMatrix in="SourceAlpha" type="matrix" values="0 0 0 0 0 0 0 0 0 0 0 0 0 0 0 0 0 0 127 0" result="hardAlpha"/>
<feOffset dy="4"/>
<feGaussianBlur stdDeviation="10"/>
<feColorMatrix type="matrix" values="0 0 0 0 0.00256944 0 0 0 0 0.213117 0 0 0 0 0.616667 0 0 0 0.15 0"/>
<feBlend mode="normal" in2="BackgroundImageFix" result="effect1_dropShadow_9337_1329"/>
<feBlend mode="normal" in="SourceGraphic" in2="effect1_dropShadow_9337_1329" result="shape"/>
</filter>
</defs>
</svg>
